<svg id="Capa_1" enable-background="new 0 0 497 497" height="512" viewBox="0 0 497 497" width="512" xmlns="http://www.w3.org/2000/svg"><g><path d="m497 71.4v308.64h-348.847l-57.168-5.54-56.83 5.539h-19.953c-7.843.001-14.202-6.358-14.202-14.202v-294.437l251.379-13.372z" fill="#ddeafb"/><path d="m473.25 62.2v317.84h23.75v-308.64z" fill="#cbe2ff"/><path d="m449.5 32.57 8.592 19.415-8.592 19.415h-449.5v-24.628c0-7.844 6.359-14.202 14.202-14.202z" fill="#0473ce"/><path d="m497 46.772v24.628h-47.5v-38.83h33.298c7.843 0 14.202 6.358 14.202 14.202z" fill="#fe646f"/><path d="m482.798 32.57h-23.75c7.844 0 14.202 6.359 14.202 14.203v24.627h23.75v-24.628c0-7.844-6.359-14.202-14.202-14.202z" fill="#fd4755"/><path d="m148.15 110.73v114.21l-57.165 7.227-56.835-7.227v-114.21c0-3.4 2.77-6.16 6.17-6.16h101.67c3.4 0 6.16 2.76 6.16 6.16z" fill="#528fd8"/><path d="m148.15 224.94v45.51c0 4.04-3.27 7.32-7.31 7.32h-99.37c-4.04 0-7.32-3.28-7.32-7.32v-45.51z" fill="#fff9df"/><g><path d="m147.984 380.04h-113.998v-66.321c0-3.405 2.76-6.165 6.165-6.165h101.667c3.405 0 6.165 2.76 6.165 6.165v66.321z" fill="#a274bf"/></g><path d="m306.03 110.73v49.07l-56.995 8.568-56.995-8.568v-49.07c0-3.4 2.76-6.16 6.16-6.16h101.67c3.4 0 6.16 2.76 6.16 6.16z" fill="#a274bf"/><g><path d="m306.03 250.26v49.07l-54.651 5.783-59.339-5.783v-49.07c0-3.41 2.76-6.17 6.16-6.17h101.67c3.4 0 6.16 2.76 6.16 6.17z" fill="#82aee3"/></g><path d="m463.93 110.73v49.07l-57.064 8.568-56.936-8.568v-49.07c0-3.4 2.76-6.16 6.17-6.16h101.66c3.41 0 6.17 2.76 6.17 6.16z" fill="#fe646f"/><g fill="#fff9df"><path d="m306.03 159.8v45.51c0 4.04-3.27 7.32-7.31 7.32h-99.37c-4.04 0-7.31-3.28-7.31-7.32v-45.51z"/><path d="m463.93 159.8v45.51c0 4.04-3.28 7.32-7.32 7.32h-99.37c-4.04 0-7.31-3.28-7.31-7.32v-45.51z"/><path d="m306.03 299.33v45.51c0 4.04-3.27 7.31-7.31 7.31h-99.37c-4.04 0-7.31-3.27-7.31-7.31v-45.51z"/></g><g><g><path d="m243.879 333.238h-19.843c-4.142 0-7.5-3.358-7.5-7.5s3.358-7.5 7.5-7.5h19.843c4.142 0 7.5 3.358 7.5 7.5s-3.358 7.5-7.5 7.5z" fill="#ffd15b"/></g></g><path d="m497 288.82v153.04c0 12.47-10.1 22.57-22.57 22.57h-207.98c-12.47 0-22.57-10.1-22.57-22.57v-119.95c0-12.46 10.1-22.57 22.57-22.57h97.64c9.48 0 17.94-5.91 21.2-14.81l1.26-3.46c3.26-8.9 11.72-14.82 21.2-14.82h66.68c12.47 0 22.57 10.1 22.57 22.57z" fill="#ffd15b"/><path d="m368.032 433.369h-87.129c-2.689 0-4.869-2.18-4.869-4.869v-21.603c0-2.689 2.18-4.869 4.869-4.869h87.129c2.689 0 4.869 2.18 4.869 4.869v21.603c0 2.689-2.18 4.869-4.869 4.869z" fill="#fff9df"/><path d="m368.032 402.028h-24.655c2.689 0 4.869 2.18 4.869 4.869v21.603c0 2.689-2.18 4.869-4.869 4.869h24.655c2.689 0 4.869-2.18 4.869-4.869v-21.603c0-2.689-2.18-4.869-4.869-4.869z" fill="#fff0ad"/><g><path d="m474.43 266.25h-26.556c8.282 0 14.996 6.714 14.996 14.996v168.188c0 8.282-6.714 14.996-14.996 14.996h26.556c12.47 0 22.57-10.1 22.57-22.57v-153.04c0-12.47-10.1-22.57-22.57-22.57z" fill="#ffc344"/></g><g><path d="m117.152 259.347h-50.998c-4.142 0-7.5-3.358-7.5-7.5s3.358-7.5 7.5-7.5h50.998c4.142 0 7.5 3.358 7.5 7.5s-3.358 7.5-7.5 7.5z" fill="#ffd15b"/></g><g><path d="m275.034 193.714h-50.998c-4.142 0-7.5-3.358-7.5-7.5s3.358-7.5 7.5-7.5h50.998c4.142 0 7.5 3.358 7.5 7.5s-3.358 7.5-7.5 7.5z" fill="#ffd15b"/></g><g><path d="m432.927 193.714h-50.997c-4.142 0-7.5-3.358-7.5-7.5s3.358-7.5 7.5-7.5h50.998c4.142 0 7.5 3.358 7.5 7.5s-3.359 7.5-7.501 7.5z" fill="#ffd15b"/></g><g><path d="m462.865 304.366h-48.499c-4.142 0-7.5-3.358-7.5-7.5s3.358-7.5 7.5-7.5h48.499c4.142 0 7.5 3.358 7.5 7.5s-3.358 7.5-7.5 7.5z" fill="#528fd8"/></g></g></svg>